<svg xmlns="http://www.w3.org/2000/svg" width="53" height="53" viewBox="0 0 53 53">
    <g fill="#2D303F" fill-rule="evenodd">
        <path d="M26.501 0C11.925 0 0 11.926 0 26.5S11.925 53 26.501 53C41.075 53 53 41.074 53 26.5S41.075 0 26.501 0zm0 49.688c-12.755 0-23.189-10.435-23.189-23.187 0-12.754 10.434-23.19 23.189-23.19 12.753 0 23.187 10.436 23.187 23.188 0 12.754-10.434 23.19-23.187 23.19z"/>
        <path d="M38.114 19.492l-14.096 13.58-7.13-6.871a1.684 1.684 0 0 0-2.379 0c-.679.653-.679 1.635 0 2.291l8.321 8.016c.34.329.68.492 1.188.492.51 0 .85-.163 1.19-.492L40.49 21.783c.679-.656.679-1.638 0-2.291a1.682 1.682 0 0 0-2.377 0z"/>
    </g>
</svg>
