<svg xmlns="http://www.w3.org/2000/svg" width="9" height="15" fill="none" viewBox="0 0 9 15">
    <path fill="#FF7043" d="M3.6 6.505c-.884 0-1.584-.726-1.484-1.563.083-.742.8-1.263 1.583-1.263h1.334c.5 0 .917.332 1.017.774.033.126.15.205.283.205h1.5c.167 0 .317-.142.3-.3C7.984 2.921 6.75 1.8 5.218 1.705V.285a.291.291 0 0 0-.3-.285h-1.5c-.167 0-.3.126-.3.284v1.437C1.248 1.958-.169 3.553.015 5.431.2 7.2 1.883 8.494 3.749 8.494h.984c.883 0 1.583.727 1.483 1.563-.083.742-.8 1.263-1.584 1.263H3.3c-.5 0-.917-.332-1.017-.773a.283.283 0 0 0-.283-.206l-1.5.001c-.167 0-.316.142-.3.3.15 1.437 1.384 2.558 2.917 2.653v1.42c0 .159.133.285.3.285h1.5c.167 0 .3-.126.3-.284v-1.453c1.6-.253 2.935-1.437 3.101-3 .2-2.036-1.484-3.758-3.584-3.758H3.599z"/>
</svg>
