<svg xmlns="http://www.w3.org/2000/svg" width="21" height="23" fill="none" viewBox="0 0 21 23">
    <path fill="#3D3D3D" fill-rule="evenodd" d="M16.39 18.05c0 1.068-.848 1.935-1.895 1.935h-3.463c0 1.602-1.27 2.902-2.837 2.902-1.566 0-2.837-1.3-2.837-2.902H1.895C.848 19.985 0 19.119 0 18.05c0-1.068.847-1.935 1.892-1.935v-3.87c0-3.564 2.821-6.45 6.303-6.45 3.482 0 6.304 2.888 6.304 6.45v3.87c1.042 0 1.891.867 1.891 1.935zm-9.77 1.935c0 .89.705 1.612 1.575 1.612s1.576-.721 1.576-1.612H6.62zm7.878-2.58c-.696 0-1.26-.576-1.26-1.29v-3.87c0-2.85-2.256-5.16-5.043-5.16-2.786 0-5.043 2.31-5.043 5.16v3.87c0 .712-.565 1.29-1.26 1.29a.64.64 0 0 0-.631.645c0 .357.283.645.634.645h12.6a.64.64 0 0 0 .635-.645.64.64 0 0 0-.632-.645z" clip-rule="evenodd"/>
    <path fill="#3768C4" fill-rule="evenodd" stroke="#fff" stroke-width="3" d="M14.341 11.78a5.122 5.122 0 1 0 0-10.243 5.122 5.122 0 0 0 0 10.243z" clip-rule="evenodd"/>
</svg>
