<svg xmlns="http://www.w3.org/2000/svg" width="183" height="96" fill="none" viewBox="0 0 183 96">
    <g filter="url(#a)">
        <rect width="2.414" height="15.336" x="28.097" y="9.444" fill="#fff" stroke="#3768C4" stroke-width=".833" rx="1.202"/>
        <path fill="#C5D2EB" d="M27.081 27.327h128.748v35.572H27.081z"/>
        <rect width="139.944" height="37.997" x="21.483" y="22.473" fill="#F9F9F9" stroke="#3768C4" stroke-width=".833" rx="1.619"/>
        <rect width="128.748" height="22.082" x="27.081" y="31.822" fill="#F9F9F9" stroke="#2E65CC" stroke-opacity=".5" stroke-width=".833" opacity=".9" rx="1.619"/>
        <path stroke="#2E65CC" stroke-width=".833" d="M34.986 46.216a3.24 3.24 0 0 0 3.247-3.233 3.24 3.24 0 0 0-3.247-3.234 3.24 3.24 0 0 0-3.247 3.233 3.24 3.24 0 0 0 3.247 3.234z"/>
        <path fill="#2E65CC" d="M34.986 43.79a.81.81 0 0 0 .812-.807.81.81 0 0 0-.812-.809.81.81 0 0 0-.812.809.81.81 0 0 0 .812.808z"/>
        <path stroke="#3768C4" stroke-width=".833" d="M67.455 37.323v8.36h2.58v1.156h1.805v1.803h5.03v-1.803h1.418v-1.285h2.967v-8.23h-13.8zM84.502 37.323v8.36h2.58v1.156h1.804v1.803h5.03v-1.803h1.419v-1.285H98.3v-8.23h-13.8z" opacity=".5"/>
        <path stroke="#2E65CC" stroke-width=".833" d="M43.915 37.129h8.117v11.318h-8.117z" opacity=".5"/>
        <path stroke="#3768C4" stroke-width=".833" d="M101.548 37.323v8.36h2.58v1.156h1.805v1.803h5.03v-1.803h1.419v-1.285h2.966v-8.23h-13.8zM118.595 37.323v8.36h2.58v1.156h1.804v1.803h5.031v-1.803h1.418v-1.285h2.966v-8.23h-13.799zM135.641 37.323v8.36h2.577v1.156h1.808v1.803h5.03v-1.803h1.418v-1.285h2.967v-8.23h-13.8z" opacity=".5"/>
        <path stroke="#2E65CC" stroke-width=".833" d="M55.559 37.129h8.117v11.318h-8.117z" opacity=".5"/>
        <path fill="#50AC59" fill-rule="evenodd" d="M27.68 28.43a.81.81 0 0 0 .812-.808.81.81 0 0 0-.812-.808.81.81 0 0 0-.811.808.81.81 0 0 0 .811.808z" clip-rule="evenodd"/>
        <path fill="#FFCA28" fill-rule="evenodd" d="M30.927 28.43a.81.81 0 0 0 .812-.808.81.81 0 0 0-.812-.808.81.81 0 0 0-.812.808.81.81 0 0 0 .812.808z" clip-rule="evenodd"/>
        <path fill="#3768C4" fill-rule="evenodd" d="M34.174 28.43a.81.81 0 0 0 .812-.808.81.81 0 0 0-.812-.808.81.81 0 0 0-.812.808.81.81 0 0 0 .812.808z" clip-rule="evenodd"/>
    </g>
    <defs>
        <filter id="a" width="182.909" height="96" x="0" y="0" color-interpolation-filters="sRGB" filterUnits="userSpaceOnUse">
            <feFlood flood-opacity="0" result="BackgroundImageFix"/>
            <feColorMatrix in="SourceAlpha" values="0 0 0 0 0 0 0 0 0 0 0 0 0 0 0 0 0 0 127 0"/>
            <feOffset dy="12"/>
            <feGaussianBlur stdDeviation="10.5"/>
            <feColorMatrix values="0 0 0 0 0 0 0 0 0 0 0 0 0 0 0 0 0 0 0.1 0"/>
            <feBlend in2="BackgroundImageFix" result="effect1_dropShadow"/>
            <feBlend in="SourceGraphic" in2="effect1_dropShadow" result="shape"/>
        </filter>
    </defs>
</svg>
