<?xml version="1.0" encoding="UTF-8" standalone="yes"?>
<svg xmlns="http://www.w3.org/2000/svg" viewBox="0 0 100 100" width="20" height="20" fill="#000000">
  <path d="M 71.5 21.267578 C 70.673 21.267578 70 21.940578 70 22.767578 C 70 23.594578 70.673 24.267578 71.5 24.267578 L 72 24.267578 L 72 25.267578 L 16.222656 25.267578 C 15.808656 25.267578 15.436109 25.523156 15.287109 25.910156 L 7.9902344 44.910156 C 7.8722344 45.218156 7.9136094 45.563937 8.0996094 45.835938 C 8.2856094 46.107937 8.5948281 46.269531 8.9238281 46.269531 L 11.990234 46.269531 C 11.443013 46.275097 11 46.718051 11 47.267578 L 11 77.267578 C 11 77.820578 11.448 78.267578 12 78.267578 L 48 78.267578 C 48.552 78.267578 49 77.820578 49 77.267578 C 49 76.714578 48.552 76.267578 48 76.267578 L 30.996094 76.267578 L 30.996094 61.345703 C 30.996094 57.445703 27.633 54.271484 23.5 54.271484 C 19.367 54.271484 16.003906 57.445703 16.003906 61.345703 L 16.003906 76.267578 L 13 76.267578 L 13 49.267578 L 40.5 49.267578 C 40.776 49.267578 41 49.043578 41 48.767578 C 41 48.491578 40.776 48.267578 40.5 48.267578 L 13 48.267578 L 13 47.267578 C 13 46.718051 12.556987 46.275097 12.009766 46.269531 L 49 46.269531 L 49 77.267578 L 49 79.267578 C 49 79.820578 49.448 80.267578 50 80.267578 L 85 80.267578 C 85.552 80.267578 86 79.819578 86 79.267578 L 86 46.269531 L 88.630859 46.269531 C 88.945859 46.269531 89.242641 46.120188 89.431641 45.867188 C 89.620641 45.614187 89.679844 45.286375 89.589844 44.984375 L 83.958984 25.984375 C 83.832984 25.559375 83.443 25.267578 83 25.267578 L 80 25.267578 L 80 24.267578 L 80.5 24.267578 C 81.327 24.267578 82 23.594578 82 22.767578 C 82 21.940578 81.327 21.267578 80.5 21.267578 L 71.5 21.267578 z M 71.5 22.267578 L 80.5 22.267578 C 80.776 22.267578 81 22.492578 81 22.767578 C 81 23.042578 80.776 23.267578 80.5 23.267578 L 71.5 23.267578 C 71.224 23.267578 71 23.042578 71 22.767578 C 71 22.492578 71.224 22.267578 71.5 22.267578 z M 73 24.267578 L 79 24.267578 L 79 36.267578 L 73 36.267578 L 73 24.267578 z M 16.908203 27.267578 L 72 27.267578 L 72 36.767578 C 72 37.043578 72.224 37.267578 72.5 37.267578 L 79.5 37.267578 C 79.776 37.267578 80 37.043578 80 36.767578 L 80 27.267578 L 82.253906 27.267578 L 87.291016 44.267578 L 10.380859 44.267578 L 16.908203 27.267578 z M 17.5 30.267578 C 17.224 30.267578 17 30.491578 17 30.767578 C 17 31.043578 17.224 31.267578 17.5 31.267578 L 69.5 31.267578 C 69.776 31.267578 70 31.043578 70 30.767578 C 70 30.491578 69.776 30.267578 69.5 30.267578 L 17.5 30.267578 z M 16.5 33.267578 C 16.224 33.267578 16 33.491578 16 33.767578 C 16 34.043578 16.224 34.267578 16.5 34.267578 L 66.5 34.267578 C 66.776 34.267578 67 34.043578 67 33.767578 C 67 33.491578 66.776 33.267578 66.5 33.267578 L 16.5 33.267578 z M 15.5 36.267578 C 15.224 36.267578 15 36.491578 15 36.767578 C 15 37.043578 15.224 37.267578 15.5 37.267578 L 64.5 37.267578 C 64.776 37.267578 65 37.043578 65 36.767578 C 65 36.491578 64.776 36.267578 64.5 36.267578 L 15.5 36.267578 z M 51 47.267578 L 84 47.267578 L 84 48.267578 L 59.5 48.267578 C 59.224 48.267578 59 48.491578 59 48.767578 C 59 49.043578 59.224 49.267578 59.5 49.267578 L 84 49.267578 L 84 78.267578 L 51 78.267578 L 51 47.267578 z M 43.5 48.267578 C 43.224 48.267578 43 48.491578 43 48.767578 C 43 49.043578 43.224 49.267578 43.5 49.267578 L 46.5 49.267578 C 46.776 49.267578 47 49.043578 47 48.767578 C 47 48.491578 46.776 48.267578 46.5 48.267578 L 43.5 48.267578 z M 54.5 48.267578 C 54.224 48.267578 54 48.491578 54 48.767578 C 54 49.043578 54.224 49.267578 54.5 49.267578 L 56.5 49.267578 C 56.776 49.267578 57 49.043578 57 48.767578 C 57 48.491578 56.776 48.267578 56.5 48.267578 L 54.5 48.267578 z M 23.5 55.263672 C 27.087 55.263672 30.003906 57.991703 30.003906 61.345703 L 30.003906 76.267578 L 16.996094 76.267578 L 16.996094 61.345703 C 16.996094 57.992703 19.913 55.263672 23.5 55.263672 z M 60.5 55.271484 C 60.226 55.271484 60.003906 55.493578 60.003906 55.767578 L 60.003906 71.767578 C 60.003906 72.041578 60.226 72.263672 60.5 72.263672 L 74.5 72.263672 C 74.774 72.263672 74.996094 72.041578 74.996094 71.767578 L 74.996094 58.767578 C 74.996094 58.493578 74.774 58.271484 74.5 58.271484 C 74.226 58.271484 74.003906 58.493578 74.003906 58.767578 L 74.003906 71.271484 L 67.996094 71.271484 L 67.996094 56.263672 L 72.5 56.263672 C 72.774 56.263672 72.996094 56.041578 72.996094 55.767578 C 72.996094 55.493578 72.774 55.271484 72.5 55.271484 L 60.5 55.271484 z M 60.996094 56.263672 L 67.003906 56.263672 L 67.003906 71.271484 L 60.996094 71.271484 L 60.996094 56.263672 z M 35.5 56.267578 C 35.224 56.267578 35 56.491578 35 56.767578 L 35 65.767578 C 35 66.043578 35.224 66.267578 35.5 66.267578 L 42.5 66.267578 C 42.776 66.267578 43 66.043578 43 65.767578 C 43 65.491578 42.776 65.267578 42.5 65.267578 L 40 65.267578 L 40 57.267578 L 43 57.267578 L 43 63.767578 C 43 64.043578 43.224 64.267578 43.5 64.267578 C 43.776 64.267578 44 64.043578 44 63.767578 L 44 56.767578 C 44 56.491578 43.776 56.267578 43.5 56.267578 L 35.5 56.267578 z M 36 57.267578 L 39 57.267578 L 39 65.267578 L 36 65.267578 L 36 57.267578 z M 23.5 58.1875 C 21.021 58.1875 19.003906 60.381172 19.003906 63.076172 L 19.003906 64.767578 C 19.003906 65.041578 19.226 65.263672 19.5 65.263672 L 27.5 65.263672 C 27.774 65.263672 27.996094 65.041578 27.996094 64.767578 L 27.996094 63.076172 C 27.996094 60.380172 25.979 58.1875 23.5 58.1875 z M 23.5 59.179688 C 25.432 59.179687 27.003906 60.928172 27.003906 63.076172 L 27.003906 64.271484 L 19.996094 64.271484 L 19.996094 63.076172 C 19.996094 60.927172 21.568 59.179688 23.5 59.179688 z M 27.5 68.271484 C 27.226 68.271484 27.003906 68.493578 27.003906 68.767578 C 27.003906 69.041578 27.226 69.263672 27.5 69.263672 L 28.5 69.263672 C 28.774 69.263672 28.996094 69.041578 28.996094 68.767578 C 28.996094 68.493578 28.774 68.271484 28.5 68.271484 L 27.5 68.271484 z"/>
</svg>
