<svg xmlns="http://www.w3.org/2000/svg" width="17" height="19" viewBox="0 0 17 19">
    <g fill="#FFF" fill-rule="evenodd" stroke="#FFF" stroke-width=".3">
        <path d="M8.496 1C4.364 1 1 4.058 1 7.814a6.118 6.118 0 0 0 .184 1.508c.114.46.283.912.502 1.343.808 1.729 2.584 4.384 6.48 7.228a.566.566 0 0 0 .667 0c3.893-2.844 5.673-5.5 6.48-7.228A6.232 6.232 0 0 0 16 7.815C15.992 4.057 12.628 1 8.496 1zm6.32 7.926c0 .007-.004.014-.004.021a7.477 7.477 0 0 1-.035.154v.007c-.098.4-.243.788-.435 1.162-.004.003-.004.01-.008.014-.733 1.579-2.34 3.988-5.838 6.615C5 14.272 3.392 11.863 2.658 10.284c-.003-.004-.003-.01-.007-.014a5.658 5.658 0 0 1-.436-1.162V9.1c-.023-.082-.031-.136-.035-.154 0-.007-.004-.014-.004-.024A5.301 5.301 0 0 1 2.06 7.81c0-3.226 2.889-5.852 6.437-5.852 3.548 0 6.438 2.626 6.438 5.852a5.3 5.3 0 0 1-.118 1.115z"/>
        <path d="M8.5 5A3.506 3.506 0 0 0 5 8.5C5 10.429 6.571 12 8.5 12S12 10.429 12 8.5 10.429 5 8.5 5zm0 6.222A2.725 2.725 0 0 1 5.778 8.5c0-1.5 1.223-2.722 2.722-2.722 1.5 0 2.722 1.223 2.722 2.722 0 1.5-1.22 2.722-2.722 2.722z"/>
    </g>
</svg>
