<svg xmlns="http://www.w3.org/2000/svg" width="22" height="22" viewBox="0 0 22 22">
    <path fill="#2D303F" fill-rule="nonzero" stroke="#000" stroke-width=".55" d="M20.827 19.98l-4.861-4.86a8.492 8.492 0 0 0 2.093-5.592C18.06 4.823 14.231 1 9.53 1 4.824 1 1 4.827 1 9.528c0 4.7 3.828 8.527 8.53 8.527 2.138 0 4.094-.789 5.593-2.093l4.861 4.86c.116.116.27.178.422.178a.6.6 0 0 0 .421-1.02zM2.193 9.528c0-4.045 3.291-7.33 7.332-7.33 4.045 0 7.332 3.29 7.332 7.33s-3.287 7.335-7.332 7.335c-4.04 0-7.332-3.29-7.332-7.335z" opacity=".8"/>
</svg>
