<svg xmlns="http://www.w3.org/2000/svg" width="20" height="19" fill="none" viewBox="0 0 20 19">
    <path fill="#202020" fill-rule="evenodd" d="M5 17a1 1 0 1 1 0-2h3v-2H3a3 3 0 0 1-3-3V3a3 3 0 0 1 3-3h12a3 3 0 0 1 3 3v3h-2V3c0-.551-.448-1-1-1H3c-.552 0-1 .449-1 1v7a1 1 0 0 0 1 1h8v2h-1v2h1v2H5zM17.172 7A2.828 2.828 0 0 1 20 9.829v6.343A2.828 2.828 0 0 1 17.172 19h-2.344A2.83 2.83 0 0 1 12 16.172V9.829A2.829 2.829 0 0 1 14.828 7h2.344zM14 9.829A.83.83 0 0 1 14.828 9h2.344a.83.83 0 0 1 .828.829v6.343a.83.83 0 0 1-.828.828h-2.344a.83.83 0 0 1-.828-.828V9.829z" clip-rule="evenodd"/>
</svg>
