<svg xmlns="http://www.w3.org/2000/svg" width="80" height="65" fill="none" viewBox="0 0 72 56">
    <path fill="#202020" fill-rule="evenodd" d="M32.5 18h-4a2.5 2.5 0 0 0-2.5 2.5v6a2.5 2.5 0 0 0 2.5 2.5h4a2.5 2.5 0 0 0 2.5-2.5v-6a2.5 2.5 0 0 0-2.5-2.5zm7 9h4a2.5 2.5 0 0 1 2.5 2.5v6a2.5 2.5 0 0 1-2.5 2.5h-4a2.5 2.5 0 0 1-2.5-2.5v-6a2.5 2.5 0 0 1 2.5-2.5zm-10.761 3h3.522A2.74 2.74 0 0 1 35 32.738v2.524A2.74 2.74 0 0 1 32.261 38h-3.522A2.74 2.74 0 0 1 26 35.262v-2.524A2.74 2.74 0 0 1 28.739 30zm10.999-12h3.523A2.74 2.74 0 0 1 46 20.739v2.522A2.74 2.74 0 0 1 43.261 26h-3.523A2.738 2.738 0 0 1 37 23.261v-2.522A2.738 2.738 0 0 1 39.738 18zm-7.477 14a.74.74 0 0 1 .739.738v2.524a.74.74 0 0 1-.739.738h-3.522a.739.739 0 0 1-.739-.738v-2.524c0-.407.331-.738.739-.738h3.522zM44 29.5c0-.275-.225-.5-.5-.5h-4a.5.5 0 0 0-.5.5v6a.5.5 0 0 0 .5.5h4c.275 0 .5-.225.5-.5v-6zM32.5 20a.5.5 0 0 1 .5.5v6a.5.5 0 0 1-.5.5h-4a.5.5 0 0 1-.5-.5v-6a.5.5 0 0 1 .5-.5h4zm11.5.739a.74.74 0 0 0-.739-.739h-3.523a.74.74 0 0 0-.738.739v2.522a.74.74 0 0 0 .738.739h3.523a.74.74 0 0 0 .739-.739v-2.522z" clip-rule="evenodd"/>
</svg>
