<svg xmlns="http://www.w3.org/2000/svg" width="20" height="21" fill="none" viewBox="0 0 20 21">
    <path fill="#fff" fill-rule="evenodd" d="M2 2.154a1 1 0 1 1 2 0v8H2v-8zm.12 9h15.76a2.12 2.12 0 0 1 2.12 2.12v4.83a2.12 2.12 0 0 1-2.12 2.12H2.12A2.12 2.12 0 0 1 0 18.105v-4.83a2.12 2.12 0 0 1 2.12-2.12zm15.76 2a.12.12 0 0 1 .12.12v4.83a.12.12 0 0 1-.12.12H2.12a.12.12 0 0 1-.12-.12v-4.83a.12.12 0 0 1 .12-.12h15.76zM4 15.654a1.5 1.5 0 1 1 3.001 0 1.5 1.5 0 0 1-3.001 0zM10.846 5c0 1.923-.769 3.615-2.038 4.885-.039.077-.154.115-.27.115a.35.35 0 0 1-.269-.115l-.538-.539a.372.372 0 0 1 0-.538A5.376 5.376 0 0 0 9.308 5c0-1.5-.616-2.846-1.577-3.808a.372.372 0 0 1 0-.538l.538-.539A.35.35 0 0 1 8.54 0a.35.35 0 0 1 .269.115C10.077 1.346 10.846 3.077 10.846 5zM6.654 2.308A3.744 3.744 0 0 1 7.769 5c0 1.077-.423 2-1.115 2.692a.372.372 0 0 1-.539 0l-.538-.538a.372.372 0 0 1 0-.539c.385-.423.654-1 .654-1.615S6 3.808 5.577 3.385a.372.372 0 0 1 0-.539l.538-.538a.372.372 0 0 1 .539 0z" clip-rule="evenodd"/>
</svg>
