<svg xmlns="http://www.w3.org/2000/svg" width="24" height="19" fill="none" viewBox="0 0 24 19">
    <path fill="#202020" d="M22.836 5.45l-.643.64.104.105.132.066.407-.81zm-21.673 0l.644.64.01-.01-.654-.63zm0 1.2l-.643.64.643-.64zm1.195 1.2l.643-.64-.643.64zm1.195 0l-.644-.64.644.64zm16.894 0l.643-.64-.643.64zm1.195 0l-.643-.64.643.64zm1.194-1.2l-.643-.64.643.64zm-16.809 3.6l-.643-.64.643.64zm0 1.2l-.643.64.643-.64zm1.195 1.2l-.644.64.644-.64zm1.194 0l.643.64-.643-.64zm7.168 0l.643-.64-.015-.015-.016-.015-.612.67zm1.194 0l.643.64-.643-.64zm1.195-1.2l-.643-.64.643.64zm0-1.2l-.643.64.643-.64zM12 1.815c4.01 0 7.537 1.608 10.193 4.276l1.287-1.28C20.504 1.82 16.522 0 12 0v1.815zM1.816 6.081C4.377 3.428 7.982 1.815 12 1.815V0C7.485 0 3.41 1.816.51 4.82l1.306 1.26zm-.001-.03v-.006a.195.195 0 0 1-.028.068c-.001.001.003-.006.02-.022L.52 4.81c-.139.139-.278.314-.379.54-.101.23-.141.465-.141.7h1.815zm-.008-.04c-.017-.017-.021-.024-.02-.023a.195.195 0 0 1 .028.067V6.05H0c0 .234.04.47.141.7.1.226.24.401.38.54l1.286-1.28zM3 7.21l-1.194-1.2L.52 7.29l1.195 1.2L3 7.21zm-.092 0c-.004.004-.003 0 .007-.004a.101.101 0 0 1 .04-.007c.015 0 .028.003.038.007.01.005.012.008.007.003L1.715 8.49c.696.7 1.785.7 2.48 0L2.91 7.21zM12 3.428A12.807 12.807 0 0 0 2.91 7.21l1.287 1.28A10.992 10.992 0 0 1 12 5.245V3.429zM21.09 7.21A12.807 12.807 0 0 0 12 3.43v1.815c3.073 0 5.832 1.266 7.804 3.247l1.286-1.28zm-.091 0c-.005.005-.003.002.007-.003a.101.101 0 0 1 .038-.007c.016 0 .03.003.04.007.01.005.011.008.006.003l-1.286 1.28c.696.7 1.785.7 2.481 0l-1.286-1.28zm1.194-1.2L21 7.21l1.286 1.28 1.195-1.2-1.287-1.28zm-.008.04v.005a.199.199 0 0 1 .028-.067c.001-.001-.004.006-.02.022l1.287 1.28c.138-.139.278-.314.378-.54.102-.23.142-.466.142-.7h-1.815zm.244.211a.571.571 0 0 1-.19-.151.354.354 0 0 1-.054-.088c-.008-.02 0-.008 0 .028H24c0-.22-.035-.466-.128-.7a1.332 1.332 0 0 0-.628-.71l-.815 1.621zM6.67 10.891C8.045 9.509 9.865 8.672 12 8.672V6.857c-2.644 0-4.92 1.049-6.616 2.753l1.286 1.28zm0-.08c-.004-.006-.002-.004.002.005a.092.092 0 0 1 0 .07c-.004.008-.006.01-.002.005L5.384 9.61a1.738 1.738 0 0 0 0 2.48l1.286-1.28zm1.195 1.2l-1.195-1.2-1.286 1.28 1.194 1.2 1.287-1.28zm-.092 0c-.005.004-.003 0 .007-.004a.102.102 0 0 1 .078 0c.01.005.012.008.007.003l-1.287 1.28c.696.7 1.785.7 2.481 0l-1.286-1.28zM12 10.285c-1.595 0-3.11.602-4.227 1.724l1.286 1.28c.76-.763 1.806-1.19 2.94-1.19v-1.814zm4.196 1.694c-1.076-.982-2.567-1.694-4.196-1.694V12.1c1.101 0 2.17.488 2.972 1.22l1.224-1.34zm-.061.03c-.005.005-.003.002.007-.003a.102.102 0 0 1 .039-.007c.015 0 .029.003.039.007.01.005.012.008.007.003l-1.287 1.28c.697.7 1.785.7 2.481 0l-1.286-1.28zm1.195-1.2l-1.195 1.2 1.286 1.28 1.195-1.2-1.286-1.28zm0 .08c.004.005.002.004-.002-.005a.093.093 0 0 1 0-.07c.003-.008.006-.01.002-.005l1.286 1.28a1.738 1.738 0 0 0 0-2.48l-1.286 1.28zM12 8.673c2.134 0 3.954.837 5.33 2.219l1.286-1.28C16.919 7.905 14.644 6.856 12 6.856v1.815zm0 10.286a2.618 2.618 0 0 0 2.614-2.622h-1.815c0 .45-.362.807-.8.807v1.815zm-2.614-2.622A2.618 2.618 0 0 0 12 18.958v-1.815a.803.803 0 0 1-.8-.807H9.387zM12 13.714a2.618 2.618 0 0 0-2.614 2.622H11.2c0-.45.361-.807.799-.807v-1.815zm2.614 2.622A2.618 2.618 0 0 0 12 13.714v1.815c.437 0 .799.358.799.807h1.815z"/>
</svg>
