<svg xmlns="http://www.w3.org/2000/svg" width="20" height="16" fill="none" viewBox="0 0 20 16">
    <path fill="#202020" fill-rule="evenodd" d="M0 2.465C0 1.104 1.03 0 2.301 0h15.391c1.271 0 2.302 1.104 2.302 2.465v11.07c0 1.361-1.031 2.465-2.302 2.465H2.301C1.03 16 0 14.896 0 13.535V2.465zM17.994 13.7V2.301A.302.302 0 0 0 17.692 2H2.301A.301.301 0 0 0 2 2.301v11.398c0 .166.135.301.301.301h15.391a.302.302 0 0 0 .302-.301zM7.357 5.169H4.622c-.908 0-1.643.736-1.643 1.644v2.656c0 .907.735 1.642 1.643 1.642h2.735c.907 0 1.644-.735 1.644-1.642V6.813c0-.908-.737-1.644-1.644-1.644zm-.356 3.943H4.98V7.169h2.021v1.943zm8.851.397a1 1 0 0 0-1-1h-3.847a1 1 0 0 0 0 2h3.847a1 1 0 0 0 1-1zm.187-4.07a1 1 0 0 1 0 2h-5.034a1 1 0 0 1 0-2h5.034z" clip-rule="evenodd"/>
</svg>
