<svg xmlns="http://www.w3.org/2000/svg" width="20" height="20" fill="none" viewBox="0 0 20 20">
    <path fill="#202020" fill-rule="evenodd" d="M7.146 19.667c.85.221 1.698.333 2.526.333.827 0 1.677-.112 2.526-.333a.999.999 0 0 0 .735-.811l.366-2.297c.08-.045.162-.091.24-.14l2.178.836c.374.14.792.052 1.071-.232a10.02 10.02 0 0 0 2.52-4.379 1 1 0 0 0-.335-1.04l-1.802-1.462a6.724 6.724 0 0 0 0-.286l1.802-1.462a.998.998 0 0 0 .335-1.041 10.02 10.02 0 0 0-2.52-4.378 1.003 1.003 0 0 0-1.07-.23l-2.178.834a6.284 6.284 0 0 0-.241-.14l-.366-2.296a1 1 0 0 0-.734-.811 9.794 9.794 0 0 0-5.054 0 1 1 0 0 0-.734.81L6.046 3.44a6.32 6.32 0 0 0-.242.139l-2.178-.834a.998.998 0 0 0-1.07.23 10.02 10.02 0 0 0-2.52 4.378.998.998 0 0 0 .335 1.041l1.803 1.462a6.725 6.725 0 0 0 0 .286L.37 11.603a1 1 0 0 0-.335 1.041 10.02 10.02 0 0 0 2.52 4.379c.28.285.699.375 1.071.232l2.177-.835c.08.048.161.094.242.139l.365 2.297c.062.393.35.71.735.811zm3.919-1.796a7.577 7.577 0 0 1-2.786 0l-.339-2.13a1 1 0 0 0-.567-.75 5.492 5.492 0 0 1-.873-.504.996.996 0 0 0-.936-.117l-2.016.773a7.974 7.974 0 0 1-1.388-2.416l1.672-1.355a1 1 0 0 0 .366-.865A5.702 5.702 0 0 1 4.172 10c0-.17.011-.34.026-.508a1.002 1.002 0 0 0-.366-.866L2.16 7.27c.318-.881.789-1.7 1.388-2.414l2.017.773c.31.119.661.076.936-.118.271-.192.564-.361.871-.502a1 1 0 0 0 .568-.751l.34-2.13a7.58 7.58 0 0 1 2.785 0l.339 2.13c.052.329.266.61.568.75.307.142.6.31.87.503.275.194.628.237.937.118l2.018-.773a8 8 0 0 1 1.387 2.414l-1.672 1.355c-.26.211-.397.538-.365.871.016.166.026.333.026.503 0 .17-.01.337-.026.503a.999.999 0 0 0 .365.87l1.672 1.355a7.993 7.993 0 0 1-1.387 2.416l-2.017-.773a.996.996 0 0 0-.936.117 5.498 5.498 0 0 1-.873.504 1 1 0 0 0-.567.75l-.34 2.13zM9.671 6.999a3 3 0 1 0 0 6 3 3 0 0 0 0-6zm1 3a1.001 1.001 0 0 0-2 0 1.001 1.001 0 0 0 2 0z" clip-rule="evenodd"/>
</svg>
