<svg xmlns="http://www.w3.org/2000/svg" width="12" height="12" viewBox="0 0 12 12">
    <g fill="none" fill-rule="evenodd">
        <rect width="11.35" height="11.35" x=".325" y=".325" fill="#07C9A1" stroke="#07C9A1" stroke-width=".65" rx="2"/>
        <path fill="#FFF" d="M2.092 6.3A.321.321 0 0 1 2 6.09c0-.06.03-.15.092-.21l.43-.42a.303.303 0 0 1 .432 0l.03.03 1.693 1.77a.15.15 0 0 0 .215 0l4.123-4.171h.031a.306.306 0 0 1 .432 0l.43.42c.123.12.123.3 0 .42L4.986 8.912A.283.283 0 0 1 4.769 9a.282.282 0 0 1-.215-.09l-2.4-2.52-.062-.09z"/>
    </g>
</svg>
