<svg xmlns="http://www.w3.org/2000/svg" width="10" height="10" viewBox="0 0 17 17">
    <g fill="#FF8E2C" fill-rule="nonzero">
        <path d="M8.5 17c4.687 0 8.5-3.813 8.5-8.5C17 3.813 13.187 0 8.5 0 3.813 0 0 3.813 0 8.5 0 13.187 3.813 17 8.5 17zm0-15.954c4.11 0 7.454 3.344 7.454 7.454 0 4.11-3.344 7.454-7.454 7.454-4.11 0-7.454-3.344-7.454-7.454 0-4.11 3.344-7.454 7.454-7.454z"/>
        <circle cx="8.5" cy="11.5" r="1"/>
        <path d="M8.5 10c.276 0 .5-.213.5-.476V5.476A.489.489 0 0 0 8.5 5c-.276 0-.5.213-.5.476v4.048c0 .263.224.476.5.476z"/>
    </g>
</svg>
