<svg xmlns="http://www.w3.org/2000/svg" width="17" height="13" fill="none" viewBox="0 0 17 13">
    <path fill="#43A047" fill-rule="evenodd" d="M16.705 3.445C14.56 1.3 11.7 0 8.45 0 5.2 0 2.275 1.3.195 3.445A.59.59 0 0 0 0 3.9a.59.59 0 0 0 .195.455l.91.91c.26.26.65.26.91 0A9.085 9.085 0 0 1 8.45 2.6c2.535 0 4.81 1.04 6.435 2.665.26.26.65.26.91 0l.91-.91A.59.59 0 0 0 16.9 3.9c0-.195-.065-.39-.195-.455zM8.45 5.2c-1.82 0-3.38.715-4.55 1.885-.26.26-.26.65 0 .91l.91.91c.26.26.65.26.91 0C6.435 8.19 7.41 7.8 8.45 7.8s2.015.455 2.73 1.105c.26.26.65.26.91 0l.91-.91c.26-.26.26-.65 0-.91A6.327 6.327 0 0 0 8.45 5.2zm1.3 6.5a1.3 1.3 0 1 1-2.6 0 1.3 1.3 0 0 1 2.6 0z" clip-rule="evenodd"/>
</svg>
